<?xml version="1.0" encoding="utf-8"?>
<!-- Generator: Adobe Illustrator 15.1.0, SVG Export Plug-In . SVG Version: 6.00 Build 0)  -->
<!DOCTYPE svg PUBLIC "-//W3C//DTD SVG 1.1//EN" "http://www.w3.org/Graphics/SVG/1.1/DTD/svg11.dtd">
<svg version="1.1" id="Layer_1" xmlns="http://www.w3.org/2000/svg" xmlns:xlink="http://www.w3.org/1999/xlink" x="0px" y="0px"
	 width="186.509px" height="294.008px" viewBox="0 0 186.509 294.008" enable-background="new 0 0 186.509 294.008"
	 xml:space="preserve">
<polyline fill="#EE4036" points="10.184,27.825 18.176,55.833 41.351,60.5 28.34,147.167 23.155,153.167 64.009,153.167 
	62.636,157.008 30.001,157.008 51.082,281.269 48.946,286.752 61.676,294.008 81.879,294.008 128.545,294.008 137.67,286.424 
	136.11,281.269 156.65,157.008 121.357,157.008 122.677,153.167 163.53,153.167 158.346,147.167 145.335,60.5 168.509,55.833 
	176.501,27.825 186.501,6.575 186.509,0 126.009,60.5 60.676,60.5 0.176,0 "/>
<polyline fill="#F17177" points="10.008,27.825 18,55.833 41.175,60.5 28.164,147.167 22.979,153.167 63.833,153.167 62.46,157.008 
	30.001,157.008 51.082,281.269 125.833,60.5 60.5,60.5 0,0 "/>
<polygon fill="#F17177" points="121.357,157.008 76.045,294.008 128.545,294.008 137.67,286.424 136.11,281.269 156.65,157.008 "/>
<polygon fill="#C55760" points="62.636,157.008 40.633,218.54 30.001,157.008 "/>
<polyline fill="#EE4036" points="0.176,0 60.676,60.5 10.184,27.825 "/>
<polygon fill="#C55760" points="186.501,6.575 158.501,45.825 176.501,27.825 "/>
<polygon fill="#FCDFD9" points="100.841,60.5 75.468,124.083 60.676,60.5 85.795,50.791 "/>
<polygon fill="#D0D2D3" points="85.795,50.791 75.468,124.083 60.676,60.5 "/>
</svg>
